<svg xmlns="http://www.w3.org/2000/svg" viewBox="0 0 32 32" width="100%" height="100%" preserveAspectRatio="xMidYMid meet" style="image-rendering:pixelated">
  <!-- soil mound -->
  <rect x="8" y="24" width="16" height="3" fill="#8B5A2B"/>
  <rect x="10" y="23" width="12" height="1" fill="#A06A35"/>
  <rect x="9" y="27" width="14" height="1" fill="#6E4520"/>
  <!-- carrot body (top showing) -->
  <rect x="13" y="18" width="6" height="6" fill="#E67E22"/>
  <rect x="14" y="17" width="4" height="1" fill="#F39C12"/>
  <rect x="14" y="20" width="4" height="1" fill="#D35400"/>
  <rect x="15" y="22" width="2" height="2" fill="#D35400"/>
  <rect x="12" y="19" width="1" height="4" fill="#D35400"/>
  <rect x="19" y="19" width="1" height="4" fill="#E67E22"/>
  <!-- highlight -->
  <rect x="15" y="18" width="1" height="3" fill="#F5B041"/>
  <!-- leaves -->
  <rect x="15" y="12" width="2" height="5" fill="#27AE60"/>
  <rect x="12" y="10" width="2" height="5" fill="#2ECC71"/>
  <rect x="18" y="10" width="2" height="5" fill="#2ECC71"/>
  <rect x="11" y="9" width="2" height="2" fill="#1E8449"/>
  <rect x="19" y="9" width="2" height="2" fill="#1E8449"/>
  <rect x="14" y="8" width="2" height="3" fill="#27AE60"/>
  <rect x="16" y="8" width="2" height="3" fill="#1E8449"/>
  <rect x="13" y="11" width="1" height="2" fill="#58D68D"/>
  <rect x="18" y="11" width="1" height="2" fill="#58D68D"/>
  <!-- outline dots -->
  <rect x="14" y="16" width="4" height="1" fill="#A04000"/>
  <rect x="13" y="17" width="1" height="1" fill="#A04000"/>
  <rect x="18" y="17" width="1" height="1" fill="#A04000"/>
</svg>
